
<svg xmlns="http://www.w3.org/2000/svg" version="1.1" xmlns:xlink="http://www.w3.org/1999/xlink" preserveAspectRatio="none" x="0px" y="0px" width="90px" height="90px" viewBox="0 0 90 90">
<defs>
<g id="Layer1_0_FILL">
<path fill="#000000" fill-opacity="0.00392156862745098" stroke="none" d="
M 58.25 18.35
Q 58.25 18.15 58.25 17.95 58.25 12.3 54.2 8.25 50.15 4.2 44.45 4.2 39.05 4.2 35.25 7.8 34.85 8.05 34.65 8.35 30.7 12.35 30.7 17.95 30.7 18.35 31 18.65 31.3 18.95 31.7 18.95 32.1 18.95 32.4 18.65 32.7 18.35 32.7 17.95 32.7 13.1 36.15 9.65 36.2 9.6 36.25 9.55 36.35 9.45 36.5 9.35 36.5 9.3 36.55 9.3 39.8 6.2 44.45 6.2 49.35 6.2 52.8 9.65 56.25 13.1 56.25 17.95 56.25 18.15 56.25 18.35
L 56.25 29.25
Q 54.35 30.3 52.65 31.95
L 45 39.75 37.3 31.95
Q 34.05 28.75 29.7 27.7
L 29.75 27.7
Q 27.8 27.15 25.6 27.15 18.65 27.15 13.8 31.95 8.95 36.95 8.95 43.75 8.95 46.55 9.8 49.1
L 9.8 49.05
Q 10.85 52.65 13.8 55.5
L 13.8 55.45 44.65 85.95
Q 44.95 86.25 45.35 86.25 45.75 86.25 46.05 85.95
L 76.15 55.45
Q 81.05 50.6 81.05 43.75 81.05 36.95 76.2 31.95
L 76.15 31.95
Q 74.25 30.1 72 29 72 28.95 71.95 28.95 71.6 28.75 71.2 28.55
L 71.15 28.55
Q 68.05 27.15 64.45 27.15 61.1 27.15 58.25 28.3
L 58.25 18.35
M 57.7 30.75
L 57.75 30.75
Q 60.75 29.15 64.45 29.15 67.6 29.15 70.3 30.35
L 70.35 30.4
Q 70.7 30.55 71 30.75
L 71.05 30.75
Q 73.05 31.75 74.75 33.35
L 74.75 33.4
Q 79.05 37.75 79.05 43.75 79.05 49.8 74.75 54.05
L 45.35 83.85 15.2 54.05
Q 12.65 51.55 11.7 48.5
L 11.7 48.45
Q 10.95 46.25 10.95 43.75 10.95 37.75 15.25 33.35
L 15.2 33.35
Q 19.45 29.15 25.6 29.15 27.5 29.15 29.2 29.65
L 29.25 29.65
Q 33.05 30.55 35.9 33.4
L 35.9 33.35 44.3 41.85
Q 44.5 42.05 44.75 42.15 45 42.2 45.3 42.15 45.55 42.05 45.75 41.85
L 54.1 33.35
Q 55.75 31.75 57.7 30.75
M 14.4 43.3
Q 14.4 44.35 14.6 45.35 14.65 45.7 15 45.95 15.3 46.2 15.75 46.15 16.1 46.05 16.35 45.75 16.6 45.4 16.55 45 16.4 44.15 16.4 43.3 16.4 39.6 18.95 37.05 21.5 34.4 25.2 34.4 25.6 34.4 26.1 34.55 26.5 34.65 26.9 34.5 27.25 34.3 27.35 33.9 27.45 33.5 27.3 33.15 27.1 32.75 26.7 32.65 25.9 32.4 25.2 32.4 20.6 32.4 17.5 35.65 14.4 38.8 14.4 43.3
M 45 47.3
Q 42.5 47.3 40.7 49.05 38.95 50.85 38.95 53.3 38.95 55.75 40.7 57.5 41.1 57.9 41.45 58.2
L 39.35 67.3
Q 39.25 67.55 39.4 67.85 39.5 68.15 39.75 68.35 40 68.5 40.3 68.5
L 49.65 68.5
Q 49.95 68.5 50.25 68.35 50.45 68.15 50.6 67.85 50.7 67.55 50.65 67.3
L 48.5 58.2
Q 48.9 57.9 49.3 57.45 51 55.7 51 53.3 51 50.85 49.2 49.05 47.45 47.3 45 47.3
M 47.8 50.45
Q 49 51.65 49 53.3 49 54.95 47.8 56.1 47.75 56.1 47.75 56.15 47.35 56.6 46.9 56.9 46.55 57.05 46.45 57.35 46.3 57.65 46.4 58
L 48.4 66.5 41.6 66.5 43.6 57.95
Q 43.65 57.6 43.5 57.3 43.35 56.95 43.05 56.8 42.6 56.55 42.1 56.1 40.95 54.95 40.95 53.3 40.95 51.65 42.1 50.5
L 42.15 50.45
Q 43.35 49.3 45 49.3 46.65 49.3 47.8 50.45 Z"/>
</g>

<g id="Layer0_0_FILL">
<path fill="#E44642" stroke="none" d="
M 54.2 8.25
Q 50.160546875 4.203515625 44.45 4.2 39.03984375 4.205859375 35.2 7.75 34.8638671875 8.0611328125 34.65 8.35 30.7021484375 12.3609375 30.7 17.95 30.703515625 18.3607421875 31 18.65 31.2892578125 18.946484375 31.7 18.95 32.1107421875 18.946484375 32.4 18.65 32.696484375 18.3607421875 32.7 17.95 32.6978515625 13.1091796875 36.15 9.65 36.203515625 9.6015625 36.25 9.55 36.3361328125 9.4388671875 36.45 9.3 36.498828125 9.3013671875 36.5 9.25 39.7966796875 6.194140625 44.45 6.2 49.339453125 6.196484375 52.8 9.65 56.2521484375 13.1091796875 56.25 17.95 56.25 18.15 56.25 18.35
L 56.25 29.25
Q 54.3271484375 30.2953125 52.65 31.9
L 44.95 39.7 37.3 31.95 37.3 31.9
Q 34.04609375 28.735546875 29.65 27.65
L 29.7 27.65
Q 27.79609375 27.1458984375 25.6 27.15 18.637109375 27.158984375 13.8 31.95
L 13.75 31.95
Q 8.9435546875 36.94609375 8.95 43.75 8.95 46.5720703125 9.8 49.05
L 9.8 49
Q 10.8595703125 52.6267578125 13.8 55.45
L 13.8 55.45 44.65 85.95
Q 44.94140625 86.2470703125 45.35 86.25 45.760546875 86.2462890625 46.05 85.95
L 76.15 55.45
Q 81.048828125 50.6115234375 81.05 43.75 81.0587890625 36.9455078125 76.15 31.95
L 76.15 31.9
Q 74.2578125 30.084765625 72 28.95 71.9759765625 28.961328125 71.95 28.95 71.59921875 28.748828125 71.2 28.55
L 71.15 28.55
Q 68.0658203125 27.1591796875 64.45 27.15 61.116796875 27.1578125 58.25 28.3
L 58.25 18.35
Q 58.25 18.15 58.25 17.95 58.2478515625 12.2908203125 54.2 8.25
M 54.05 33.35
Q 55.7498046875 31.728125 57.7 30.75
L 57.7 30.7
Q 60.759375 29.140234375 64.45 29.15 67.6044921875 29.1533203125 70.3 30.35 70.324609375 30.3634765625 70.35 30.35 70.6953125 30.5501953125 71 30.7 71.0259765625 30.737890625 71.05 30.75 73.048046875 31.7283203125 74.7 33.35
L 74.75 33.35
Q 79.0408203125 37.771484375 79.05 43.75 79.0509765625 49.7884765625 74.75 54.05
L 45.35 83.85 15.2 54.05 15.2 54
Q 12.640234375 51.5732421875 11.7 48.45
L 11.7 48.4
Q 10.9498046875 46.2279296875 10.95 43.75 10.95625 37.7537109375 15.2 33.35
L 15.2 33.35
Q 19.4626953125 29.1412109375 25.6 29.15 27.50390625 29.15390625 29.15 29.6
L 29.2 29.6
Q 33.053515625 30.564453125 35.9 33.35
L 35.9 33.35 44.3 41.85
Q 44.49140625 42.0484375 44.75 42.1 45.0111328125 42.196484375 45.25 42.1 45.5365234375 42.0474609375 45.7 41.85
L 54.05 33.35
M 16.35 45.7
Q 16.5921875 45.3853515625 16.5 44.95 16.3939453125 44.1603515625 16.4 43.3 16.401953125 39.6125 18.9 37.05 21.47890625 34.4005859375 25.2 34.4 25.6119140625 34.4017578125 26.1 34.55 26.501171875 34.6705078125 26.85 34.45 27.234375 34.2875 27.35 33.9 27.4708984375 33.4984375 27.25 33.1 27.0876953125 32.7658203125 26.7 32.65 25.8880859375 32.3982421875 25.2 32.4 20.6208984375 32.39921875 17.45 35.65 14.3978515625 38.7876953125 14.4 43.3 14.4060546875 44.3396484375 14.55 45.3 14.640625 45.7197265625 14.95 45.95 15.3150390625 46.1923828125 15.7 46.1 16.1201171875 46.0595703125 16.35 45.7
M 45 47.3
Q 42.4921875 47.2978515625 40.7 49
L 40.65 49.05
Q 38.9443359375 50.845703125 38.95 53.3 38.953515625 55.760546875 40.7 57.5 41.08046875 57.886328125 41.45 58.15
L 39.3 67.25
Q 39.2583984375 67.5666015625 39.35 67.85 39.478125 68.14453125 39.7 68.3 39.987109375 68.5001953125 40.3 68.5
L 49.65 68.5
Q 49.9626953125 68.500390625 50.2 68.3 50.4720703125 68.1443359375 50.55 67.85 50.691796875 67.567578125 50.6 67.25
L 48.45 58.2
Q 48.91171875 57.8794921875 49.25 57.45 51.0048828125 55.722265625 51 53.3 51.0013671875 50.8443359375 49.2 49.05 47.460546875 47.303515625 45 47.3
M 47.8 50.45
Q 48.9986328125 51.6556640625 49 53.3 48.9947265625 54.925390625 47.8 56.05 47.761328125 56.11171875 47.7 56.15 47.3552734375 56.6048828125 46.85 56.85 46.569921875 57.03828125 46.4 57.35 46.290625 57.6537109375 46.35 57.95
L 48.35 66.5 41.55 66.5 43.55 57.9
Q 43.6515625 57.590234375 43.5 57.25 43.3552734375 56.95703125 43.05 56.8 42.5767578125 56.5654296875 42.1 56.1 40.946484375 54.939453125 40.95 53.3 40.95546875 51.671484375 42.1 50.45
L 42.1 50.45
Q 43.325390625 49.301953125 45 49.3 46.639453125 49.296484375 47.8 50.45 Z"/>
</g>
</defs>

<g transform="matrix( 1, 0, 0, 1, 0,0) ">
<use xlink:href="#Layer1_0_FILL"/>
</g>

<g transform="matrix( 1, 0, 0, 1, 0,0) ">
<use xlink:href="#Layer0_0_FILL"/>
</g>
</svg>
